<svg xmlns="http://www.w3.org/2000/svg" width="128" height="128" xml:space="preserve"><path fill="#282D33" d="M0 122.135h127.488v4H0zM122.617 117.998h-4v-6.064c0-.568-.449-1.031-1.002-1.031H74.107c-.553 0-1.002.463-1.002 1.031v6.064h-4v-6.064c0-2.775 2.244-5.031 5.002-5.031h43.508c2.758 0 5.002 2.256 5.002 5.031v6.064z"/><path fill="#282D33" d="M114.115 110.9H77.609c-2.758 0-5.002-2.258-5.002-5.033v-4.549c0-2.775 2.244-5.033 5.002-5.033h36.506c2.757 0 5 2.258 5 5.033v4.549c0 2.776-2.243 5.033-5 5.033zm-36.506-10.615c-.553 0-1.002.463-1.002 1.033v4.549c0 .57.449 1.033 1.002 1.033h36.506c.552 0 1-.463 1-1.033v-4.549c0-.57-.448-1.033-1-1.033H77.609zM90.24 74.35a4.59 4.59 0 0 1-3.287-1.375l-5.907-5.969c-1.796-1.814-1.796-4.769 0-6.584L105.607 35.6c.874-.885 2.041-1.374 3.284-1.374s2.41.488 3.287 1.374l5.908 5.972c1.793 1.817 1.792 4.769.001 6.582l-24.56 24.821a4.598 4.598 0 0 1-3.287 1.375zm18.652-36.124a.602.602 0 0 0-.438.186L83.89 63.234a.682.682 0 0 0 0 .958l5.907 5.968a.61.61 0 0 0 .886 0l24.56-24.818a.693.693 0 0 0-.002-.958l-5.906-5.97a.607.607 0 0 0-.443-.188zM58.218 41.988a4.592 4.592 0 0 1-3.286-1.373l-5.908-5.97c-1.796-1.818-1.796-4.772 0-6.586L73.582 3.24c.877-.886 2.045-1.374 3.289-1.374s2.412.488 3.288 1.375l5.907 5.969a4.697 4.697 0 0 1 0 6.583L61.504 40.614a4.59 4.59 0 0 1-3.286 1.374zM76.871 5.866a.614.614 0 0 0-.445.188l-24.557 24.82a.685.685 0 0 0 0 .96l5.907 5.969a.612.612 0 0 0 .442.187c.117 0 .29-.032.443-.188L83.223 12.98a.683.683 0 0 0 0-.957l-5.908-5.97a.613.613 0 0 0-.444-.187z"/><path fill="#282D33" d="M63.409 34.912 86.75 58.5l-2.843 2.814-23.341-23.587zM83.212 14.897l23.342 23.587-2.843 2.814-23.342-23.587z"/><path fill="#282D33" d="M27.151 105.459 16.914 95.111 69.94 41.518l10.241 10.349-53.03 53.592zm-4.61-10.348 4.61 4.66 47.403-47.905-4.614-4.662-47.399 47.907z"/><path fill="#282D33" d="M21.253 115.137 7.335 101.07l10.551-10.662 13.916 14.066-10.549 10.663zm-8.291-14.067 8.291 8.379 4.922-4.975-8.289-8.379-4.924 4.975zM61.278 53.498l7.075 7.147-2.842 2.814-7.075-7.147z"/><g><path fill="#282D33" d="m53.857 61.005 7.073 7.147-2.843 2.814-7.073-7.147z"/></g><g><path fill="#282D33" d="m79.661 32.157 9.814 9.917-2.843 2.813-9.814-9.917z"/></g><g><path fill="#282D33" d="M116.617 75.457H128v4h-11.383zM123.418 61.015l2.162 3.365-9.607 6.172-2.162-3.365zM115.98 84.357l9.607 6.173-2.162 3.365-9.608-6.173z"/></g><g><path fill="#282D33" d="M65.462 75.457h11.382v4H65.462zM77.483 84.351l2.162 3.365-9.607 6.172-2.162-3.365z"/></g></svg>