<svg xmlns="http://www.w3.org/2000/svg" width="128" height="128" xml:space="preserve"><path fill="#282D33" d="M34.114 61.983 22.033 28.625 9.955 61.982l-3.759-1.36 15.837-43.739 15.84 43.739z"/><path fill="#282D33" d="M22.034 78.391c-10.245 0-19.064-6.989-21.448-16.996L0 58.933h44.068l-.587 2.462c-2.382 10.007-11.202 16.996-21.447 16.996zM5.247 62.931c2.688 6.86 9.269 11.463 16.787 11.463s14.1-4.603 16.787-11.463H5.247zM118.049 61.983l-12.084-33.358-12.078 33.357-3.76-1.36 15.838-43.74 15.842 43.74z"/><path fill="#282D33" d="M105.967 78.391c-10.246 0-19.065-6.989-21.446-16.996l-.586-2.462H128l-.586 2.462c-2.384 10.007-11.203 16.996-21.447 16.996zM89.18 62.931c2.687 6.86 9.269 11.463 16.787 11.463 7.518 0 14.099-4.603 16.787-11.463H89.18zM80.849 32.006c-3.817 0-6.922-3.115-6.922-6.944V5.258h5.782c.291-.037.608-.032.932-.01.068.004.138.01.208.01 3.816 0 6.923 3.115 6.924 6.944v12.86c-.001 3.829-3.107 6.944-6.924 6.944zm-2.924-22.75v15.806c0 1.625 1.312 2.947 2.924 2.947 1.613 0 2.926-1.322 2.926-2.947v-12.86c-.001-1.624-1.313-2.946-2.926-2.946-.157 0-.313-.009-.469-.019-.065-.004-.131-.01-.194-.01l-.198.041-.123-.012h-1.94z"/><path fill="#282D33" d="M71.001 32.006v-3.998c1.613 0 2.926-1.322 2.926-2.947V9.226h-5.849v8.702H64.08v-12.7h13.845v19.833c0 3.83-3.107 6.945-6.924 6.945z"/><path fill="#282D33" d="M71.001 32.007c-3.816 0-6.921-3.115-6.921-6.945V5.229h13.845v12.7h-3.998V9.226h-5.849v15.836c0 1.625 1.312 2.948 2.923 2.948v3.997z"/><path fill="#282D33" d="M58.232 17.928h-3.998V5.229h11.845v3.997h-7.847z"/><path fill="#282D33" d="M48.387 17.94h-3.998V5.229h13.843v12.699h-3.998V9.226h-5.847z"/><g><path fill="#282D33" d="M52.099 122.353h-3.998V51.698l-9.599-12.067c-2.42-3.418-2.45-7.032-.093-11.05l6.378-10.193 3.39 2.121-6.35 10.144c-1.778 3.034-1.333 4.854-.094 6.624l10.365 13.024v72.052z"/></g><g><path fill="#282D33" d="M60.14 33.442h-7.813v-3.998h7.813c2.246 0 3.94-1.841 3.94-4.281v-3.337l-20.19.029-.006-3.998 24.194-.035v7.341c0 4.643-3.486 8.279-7.938 8.279z"/></g><g><path fill="#282D33" d="M80.478 122.771H76.48V49.496l.365-.518c3.333-4.729 6.929-10.917 6.929-12.666V19.354h3.998v16.958c0 3.579-5.18 11.404-7.294 14.447v72.012z"/></g><g><path fill="#282D33" d="M17.943 10.203h28.444v3.998H17.943z"/></g><g><path fill="#282D33" d="M85.772 10.203h28.443v3.998H85.772z"/></g><g><path fill="#282D33" d="M69.12 46.779h-3.998c0-7.094-5.739-12.865-12.795-12.865v-3.998c9.26.001 16.793 7.565 16.793 16.863z"/></g></svg>